<svg preserveAspectRatio="none" width="100%" height="100%" overflow="visible" style="display: block;" viewBox="0 0 30 30" fill="none" xmlns="http://www.w3.org/2000/svg">
<g id="icon">
<rect width="30" height="30" fill="#D1D1D1"/>
<path id="Vector" d="M22.5604 6L7.53802 6C6.71717 6 5.99998 6.59062 5.99998 7.40183L5.99998 22.4575C5.99998 23.2732 6.71717 24 7.53802 24H22.556C23.3812 24 24 23.2683 24 22.4575V7.40183C24.0048 6.59062 23.3812 6 22.5604 6ZM11.5796 21.0039H9.00092V12.9863H11.5796V21.0039ZM10.3794 11.7672H10.361C9.5357 11.7672 9.00132 11.1529 9.00132 10.3839C9.00132 9.6008 9.54976 9.00094 10.3935 9.00094C11.2373 9.00094 11.7536 9.59638 11.772 10.3839C11.7716 11.1529 11.2373 11.7672 10.3794 11.7672ZM21.0039 21.0039H18.4252V16.62C18.4252 15.5697 18.0499 14.8521 17.117 14.8521C16.4042 14.8521 15.9823 15.3343 15.7947 15.804C15.7244 15.9727 15.7055 16.2025 15.7055 16.4372V21.0039H13.1269V12.9863H15.7055V14.102C16.0808 13.5676 16.667 12.7986 18.0311 12.7986C19.7238 12.7986 21.0043 13.9144 21.0043 16.3199L21.0039 21.0039Z" fill="var(--fill-0, #F1F1F1)"/>
</g>
</svg>
